<?xml version="1.0" encoding="UTF-8"?>
<svg width="236px" height="91px" viewBox="0 0 236 91" version="1.1" xmlns="http://www.w3.org/2000/svg" xmlns:xlink="http://www.w3.org/1999/xlink">
    <!-- Generator: Sketch 49.3 (51167) - http://www.bohemiancoding.com/sketch -->
    <title>safu-light</title>
    <desc>Created with Sketch.</desc>
    <defs>
        <rect id="path-1" x="26" y="33" width="17" height="17"></rect>
    </defs>
    <g id="safu-light" stroke="none" stroke-width="1" fill="none" fill-rule="evenodd">
        <path d="M82.6,70.5 C82.6,69.83333 82.833331,69.16667 83.3,68.5 C83.766669,67.83333 84.299997,67.5 84.9,67.5 C85.366669,67.5 86.099995,67.8833295 87.1,68.65 C88.100005,69.4166705 89.533324,70.199996 91.4,71 C93.266676,71.800004 95.499987,72.2 98.1,72.2 C101.633351,72.2 104.233325,71.53334 105.9,70.2 C107.566675,68.86666 108.4,67.166677 108.4,65.1 C108.4,62.699988 107.550008,60.7833405 105.85,59.35 C104.149991,57.9166595 102.100012,56.86667 99.7,56.2 C97.299988,55.53333 94.8833455,54.800004 92.45,54 C90.0166545,53.199996 87.9500085,51.8833425 86.25,50.05 C84.5499915,48.2166575 83.7,45.766682 83.7,42.7 C83.7,39.033315 85.0166535,35.8500135 87.65,33.15 C90.2833465,30.4499865 94.233307,29.1 99.5,29.1 C102.766683,29.1 105.816652,29.6166615 108.65,30.65 C111.483347,31.6833385 112.9,32.799994 112.9,34 C112.9,34.66667 112.633336,35.399996 112.1,36.2 C111.566664,37.000004 110.933337,37.4 110.2,37.4 C109.999999,37.4 108.766678,36.933338 106.5,36 C104.233322,35.066662 101.933345,34.6 99.6,34.6 C96.26665,34.6 93.766675,35.399992 92.1,37 C90.433325,38.600008 89.6,40.39999 89.6,42.4 C89.6,44.466677 90.4499915,46.099994 92.15,47.3 C93.8500085,48.500006 95.9166545,49.4166635 98.35,50.05 C100.783345,50.6833365 103.216655,51.4166625 105.65,52.25 C108.083346,53.0833375 110.149991,54.5499895 111.85,56.65 C113.550008,58.7500105 114.4,61.46665 114.4,64.8 C114.4,68.80002 112.983347,71.9499885 110.15,74.25 C107.316652,76.5500115 103.366692,77.7 98.3,77.7 C93.899978,77.7 90.1833485,76.9166745 87.15,75.35 C84.1166515,73.7833255 82.6,72.166675 82.6,70.5 Z M120.8,64.5 C120.8,59.366641 122.783314,55.80001 126.75,53.8 C130.716686,51.79999 136.499962,50.8 144.1,50.8 L149.2,50.8 L149.2,48.4 C149.2,44.733315 148.233343,41.5500135 146.3,38.85 C144.366657,36.1499865 141.40002,34.8 137.4,34.8 C134.73332,34.8 132.316677,35.2833285 130.15,36.25 C127.983322,37.2166715 126.833334,37.7 126.7,37.7 C125.899996,37.7 125.266669,37.333337 124.8,36.6 C124.333331,35.866663 124.1,35.066671 124.1,34.2 C124.1,32.933327 125.533319,31.766672 128.4,30.7 C131.266681,29.633328 134.333317,29.1 137.6,29.1 C143.866698,29.1 148.449986,30.9166485 151.35,34.55 C154.250015,38.1833515 155.7,42.799972 155.7,48.4 L155.7,74.4 C155.7,75.133337 155.400003,75.7499975 154.8,76.25 C154.199997,76.7500025 153.433338,77 152.5,77 C151.633329,77 150.91667,76.7500025 150.35,76.25 C149.78333,75.7499975 149.5,75.133337 149.5,74.4 L149.5,70 C145.033311,75.133359 140.000028,77.7 134.4,77.7 C130.39998,77.7 127.133346,76.5833445 124.6,74.35 C122.066654,72.1166555 120.8,68.833355 120.8,64.5 Z M127.3,63.9 C127.3,66.700014 128.099992,68.7833265 129.7,70.15 C131.300008,71.5166735 133.399987,72.2 136,72.2 C139.133349,72.2 142.116652,71.033345 144.95,68.7 C147.783347,66.366655 149.2,64.033345 149.2,61.7 L149.2,55.3 L145,55.3 C142.33332,55.3 140.083343,55.399999 138.25,55.6 C136.416657,55.800001 134.600009,56.166664 132.8,56.7 C130.999991,57.233336 129.633338,58.099994 128.7,59.3 C127.766662,60.500006 127.3,62.033324 127.3,63.9 Z M167.9,74.5 L167.9,19.1 C167.9,14.099975 169.666649,9.7833515 173.2,6.15 C176.733351,2.5166485 180.899976,0.7 185.7,0.7 L188.2,0.7 C189.000004,0.7 189.666664,0.999997 190.2,1.6 C190.733336,2.200003 191,2.899996 191,3.7 C191,4.500004 190.733336,5.1833305 190.2,5.75 C189.666664,6.3166695 189.000004,6.6 188.2,6.6 L186.5,6.6 C183.099983,6.6 180.250011,7.7833215 177.95,10.15 C175.649989,12.5166785 174.466667,15.333317 174.4,18.6 L174.4,29.7 L188.7,29.7 C189.36667,29.7 189.916665,29.966664 190.35,30.5 C190.783336,31.033336 191,31.63333 191,32.3 C191,33.100004 190.783336,33.766664 190.35,34.3 C189.916665,34.833336 189.36667,35.1 188.7,35.1 L174.4,35.1 L174.4,74.5 C174.4,75.233337 174.06667,75.833331 173.4,76.3 C172.73333,76.766669 171.933338,77 171,77 C170.133329,77 169.400003,76.766669 168.8,76.3 C168.199997,75.833331 167.9,75.233337 167.9,74.5 Z M197.9,58.9 L197.9,32.2 C197.9,31.599997 198.216664,31.033336 198.85,30.5 C199.483337,29.966664 200.266662,29.7 201.2,29.7 C202.000004,29.7 202.73333,29.966664 203.4,30.5 C204.06667,31.033336 204.4,31.599997 204.4,32.2 L204.4,58.9 C204.4,62.23335 205.633321,65.199987 208.1,67.8 C210.566679,70.400013 213.499983,71.7 216.9,71.7 C220.300017,71.7 223.233321,70.400013 225.7,67.8 C228.166679,65.199987 229.4,62.23335 229.4,58.9 L229.4,32.1 C229.4,31.43333 229.73333,30.866669 230.4,30.4 C231.06667,29.933331 231.833329,29.7 232.7,29.7 C233.566671,29.7 234.316664,29.933331 234.95,30.4 C235.583337,30.866669 235.9,31.43333 235.9,32.1 L235.9,58.9 C235.9,63.900025 234.016686,68.2833145 230.25,72.05 C226.483315,75.8166855 222.033359,77.7 216.9,77.7 C211.699974,77.7 207.233352,75.8166855 203.5,72.05 C199.766648,68.2833145 197.9,63.900025 197.9,58.9 Z" id="safu" fill="#F4BB0E"></path>
        <rect id="Rectangle" fill="#F4BB0E" transform="translate(217.071068, 49.071068) rotate(45.000000) translate(-217.071068, -49.071068) " x="213.071068" y="45.0710678" width="8" height="8" rx="1"></rect>
        <g id="shield" transform="translate(0.000000, 8.000000)">
            <path d="M34.2,5.02 L34,5 L34.2,5.02 Z" id="Shape" fill="#000000" fill-rule="nonzero"></path>
            <path d="M67.126918,14.5997324 C56.3557411,9.81815196 45.5956002,5.01443453 34.8464954,0.188580155 C34.352258,-0.0628600517 33.7680968,-0.0628600517 33.2738594,0.188580155 C22.4640564,5.04210572 11.6514943,9.8541245 0.83617325,14.6246365 C0.293214826,14.7696015 -0.0600161428,15.2939197 0.00847010691,15.8532371 C0.0829633898,23.241443 0.000193075472,30.6379503 0.0829633898,38.0344576 C0.0980926431,40.4559744 0.294534868,42.872932 0.670632622,45.2649378 C1.87915171,52.8775382 4.91268111,60.0819771 9.51050219,66.2590647 C15.3871945,74.2034614 22.9027391,79.8815882 32.4213252,82.7538571 C33.4498676,83.0820476 34.5546088,83.0820476 35.5831512,82.7538571 C44.37418,80.1203446 52.1003698,74.7470023 57.64144,67.412953 C64.3828974,58.9237051 68.0329279,48.3807257 67.9877293,37.528075 C67.9877293,34.3320533 67.9877293,31.144333 67.9877293,27.9483113 C67.9877293,23.9553595 67.9877293,19.9624078 67.9877293,15.969456 C68.072715,15.3633328 67.7088093,14.7842858 67.126918,14.5997324 Z M34.1843329,5.12788638 L34.0187923,5.11128367 L34.1843329,5.12788638 Z M12.4985105,63.2124674 C8.47771415,57.8000307 5.82505083,51.4906989 4.76776318,44.824966 C4.42626704,42.7193857 4.24365407,40.5909652 4.22147911,38.4578267 C4.22147911,31.9744685 4.22147911,25.4911102 4.22147911,19.007752 C4.15814843,18.5205418 4.46145684,18.060705 4.93330381,17.9285758 C14.3911917,13.7225559 23.8628747,9.49993336 33.3483527,5.26070806 C33.5436517,5.17097508 33.7544976,5.12022336 33.9691301,5.11128367 L33.9691301,77.9058657 C33.5115395,77.8977901 33.0573622,77.8251317 32.619974,77.6900305 C24.5012744,75.2281936 17.4251503,70.1368624 12.4985105,63.2124674 Z" id="Shape" fill="#F4BB0E" fill-rule="nonzero"></path>
            <g id="Rectangle" transform="translate(34.500000, 41.500000) rotate(45.000000) translate(-34.500000, -41.500000) ">
                <use fill="#FAFAFA" fill-rule="evenodd" xlink:href="#path-1"></use>
                <rect stroke="#F4BB0E" stroke-width="4" x="28" y="35" width="13" height="13"></rect>
            </g>
        </g>
    </g>
</svg>