<?xml version="1.0" encoding="UTF-8"?>
<svg viewBox="0 0 31 52" version="1.1" xmlns="http://www.w3.org/2000/svg" xmlns:xlink="http://www.w3.org/1999/xlink">
    <!-- Generator: Sketch 49.3 (51167) - http://www.bohemiancoding.com/sketch -->
    <title>Artboard 4</title>
    <desc>Created with Sketch.</desc>
    <defs></defs>
    <g id="Artboard-4" stroke-width="1" fill-rule="evenodd">
        <path d="M2.74512727,47 L2.74512727,7.93079836 C2.63418153,7.49936428 2.43123492,7.16762705 2.13628746,6.93558669 C1.84133999,6.70354632 1.45142064,6.56886547 0.966529422,6.53154412 L0,6.53154412 L0,0.833121354 C1.24390657,0.390413265 2.15894899,0.135480199 2.74512727,0.0683221556 C3.62439469,-0.0324149089 4.16011329,-0.0125957882 4.75191163,0.0683221556 C5.34370996,0.149240099 6.76026718,0.414913589 8.00006446,1.50301979 C8.82659598,2.22842393 9.23986173,3.21571201 9.23986173,4.46488403 L9.23986173,26.9071809 L14.3484356,27.0410511 L23.7432418,16.3383612 L30,16.3383612 L30,21.9105738 L27.1596339,21.9105738 L19.21577,31.0616577 L27.4582826,41.7373547 L30,41.7373547 L30,47 L23.7432418,47 L14.3484356,34.8951377 L9.23986173,34.8951377 L9.23986173,47 L2.74512727,47 Z" id="Path-2"></path>
    </g>
</svg>