<?xml version="1.0" encoding="UTF-8"?>
<svg viewBox="0 0 80 86" version="1.1" xmlns="http://www.w3.org/2000/svg" xmlns:xlink="http://www.w3.org/1999/xlink">
    <!-- Generator: Sketch 49.3 (51167) - http://www.bohemiancoding.com/sketch -->
    <title>Artboard 2</title>
    <desc>Created with Sketch.</desc>
    <defs></defs>
    <g id="Artboard-2" stroke-width="1" fill-rule="evenodd">
        <g id="fox" fill-rule="nonzero">
            <path d="M77.39,1.13 C76.79,0.88 75.18,0.48 73.33,2.3 L55.74,19.49 C54.4509225,20.5636839 52.7749601,21.0559752 51.11,20.85 C47.4493801,20.0979349 43.7339382,19.6431193 40,19.49 C36.2660511,19.6429886 32.5505987,20.0978055 28.89,20.85 C27.2243463,21.0646228 25.5449843,20.5713328 24.26,19.49 L6.68,2.3 C4.82,0.48 3.22,0.88 2.62,1.13 C2.02,1.38 0.62,2.25 0.62,4.85 L0.62,43.85 C0.742149546,46.7741028 1.90546038,49.5582461 3.9,51.7 L34.5,81.86 L36.56,83.86 C37.4167219,84.6801649 38.5642704,85.126234 39.75,85.1 C41.3882195,85.0670498 42.9489173,84.3961292 44.1,83.23 L76.1,51.66 C78.0945396,49.5182461 79.2578505,46.7341028 79.38,43.81 L79.38,4.81 C79.39,2.26 78,1.39 77.39,1.13 Z M4.57,5.78 L21.5,22.32 C23.7241254,24.3222302 26.7358981,25.2084784 29.69,24.73 C33.0879356,24.0345577 36.5351639,23.6065798 40,23.45 C43.4647774,23.6072737 46.9119516,24.0352449 50.31,24.73 C53.2640085,25.2069951 56.2751498,24.3209327 58.5,22.32 L75.43,5.78 L75.43,43.78 C75.3975357,44.568813 75.2318651,45.3464507 74.94,46.08 L58.86,46.08 C58.1569455,46.0913208 57.5114817,46.4710054 57.16,47.08 L46,65.56 L34.22,65.56 L23.22,47.07 C22.8685183,46.4610054 22.2230545,46.0813208 21.52,46.07 L5.06,46.07 C4.76813491,45.3364507 4.60246427,44.558813 4.57,43.77 L4.57,5.78 Z M7.92,50.07 L20.38,50.07 L38.14,79.85 L37.27,79 L7.92,50.07 Z M42.37,79.37 L60,50.06 L72.09,50.06 L42.37,79.37 Z" id="Shape"></path>
            <polygon id="Shape" points="8.99 17.09 8.99 32.27 19.63 26.77"></polygon>
            <polygon id="Shape" points="71.01 17.09 60.37 26.77 71.01 32.27"></polygon>
        </g>
    </g>
</svg>