<?xml version="1.0" encoding="UTF-8"?>
<svg viewBox="0 0 23 28" version="1.1" xmlns="http://www.w3.org/2000/svg" xmlns:xlink="http://www.w3.org/1999/xlink">
    <!-- Generator: Sketch 49.3 (51167) - http://www.bohemiancoding.com/sketch -->
    <title>safu-light</title>
    <desc>Created with Sketch.</desc>
    <defs></defs>
    <g id="Page-1" stroke="none" stroke-width="1" fill="none" fill-rule="evenodd">
        <g id="safu-light">
            <g id="shield">
                <path d="M11.5793103,1.69474699 L11.5,1.68674699 L11.5793103,1.69474699 Z" id="Shape" fill="#000000" fill-rule="nonzero"></path>
                <path d="M22.7046928,4.92521093 C19.0615007,3.31214765 15.4220412,1.69161647 11.7863146,0.0636174017 C11.6191461,-0.0212058006 11.4215621,-0.0212058006 11.2543936,0.0636174017 C7.59813672,1.70095133 3.9409466,3.32428296 0.282823305,4.93361231 C0.0991756029,4.98251617 -0.0202995777,5.1593946 0.00286488911,5.34807999 C0.0280611465,7.8404868 6.53049503e-05,10.3356941 0.0280611465,12.8309014 C0.033178394,13.6477986 0.0996220877,14.4631578 0.226831622,15.2700995 C0.635595431,17.8382057 1.66164214,20.2686188 3.2167875,22.3524556 C5.20449225,25.032493 7.74651469,26.9480057 10.9660365,27.9169638 C11.3139258,28.0276787 11.6875883,28.0276787 12.0354776,27.9169638 C15.0089138,27.02855 17.6221839,25.2158562 19.4963694,22.7417191 C21.7765682,19.8778764 23.0111374,16.3212087 22.9958496,12.6600735 C22.9958496,11.5818975 22.9958496,10.506522 22.9958496,9.42834598 C22.9958496,8.0813261 22.9958496,6.73430625 22.9958496,5.38728636 C23.0245948,5.18281107 22.901509,4.98746991 22.7046928,4.92521093 Z M11.5623479,1.72988938 L11.5063562,1.72428847 L11.5623479,1.72988938 Z M4.22743738,21.3246878 C2.86746214,19.4988055 1.97023778,17.3703563 1.61262578,15.1216753 C1.49711973,14.411359 1.43535358,13.6933377 1.42785323,12.9737247 C1.42785323,10.7865677 1.42785323,8.59941067 1.42785323,6.41225369 C1.40643256,6.24789362 1.50902217,6.09276795 1.66861747,6.04819425 C4.86760896,4.62929597 8.07126644,3.2047968 11.2795899,1.77469669 C11.3456469,1.74442533 11.4169624,1.72730427 11.4895587,1.72428847 L11.4895587,26.2814969 C11.3347854,26.2787726 11.1811666,26.2542613 11.0332265,26.208685 C8.28719575,25.3781858 5.89380084,23.6606283 4.22743738,21.3246878 Z" id="Shape" fill="#F4BB0E" fill-rule="nonzero"></path>
                <g id="Rectangle" transform="translate(11.113189, 14.337631) rotate(45.000000) translate(-11.113189, -14.337631) translate(7.613189, 10.837631)">
                    <g id="path-1-link" transform="translate(0.782149, -0.002853)" fill="#FAFAFA">
                        <rect id="path-1" x="0" y="0" width="5.75" height="5.73493976"></rect>
                    </g>
                    <rect id="Rectangle-path" stroke="#F4BB0E" stroke-width="2" x="1.45861947" y="0.671846278" width="4.39705882" height="4.38554217"></rect>
                </g>
            </g>
        </g>
    </g>
</svg>