<?xml version="1.0" encoding="UTF-8"?>
<svg viewBox="0 0 498 723" version="1.1" xmlns="http://www.w3.org/2000/svg" xmlns:xlink="http://www.w3.org/1999/xlink">
    <!-- Generator: Sketch 49.3 (51167) - http://www.bohemiancoding.com/sketch -->
    <title>Artboard</title>
    <desc>Created with Sketch.</desc>
    <defs></defs>
    <g id="Artboard" stroke-width="1" fill-rule="evenodd">
        <path d="M249,0 C149.9,0 69.7,80.2 69.7,179.3 L69.7,246.5 C34.9,252.8 0,261.2 0,272.1 L0,622.8 C0,622.8 0,632.5 10.9,637.1 C50.4,653.1 205.8,708.1 241.5,720.7 C246.1,722.4 247.4,722.4 248.6,722.4 C250.3,722.4 251.1,722.4 255.7,720.7 C291.4,708.1 447.2,653.1 486.7,637.1 C496.8,632.9 497.2,623.2 497.2,623.2 L497.2,272.1 C497.2,261.2 462.8,252.4 427.9,246.5 L427.9,179.3 C428.4,80.2 347.7,0 249,0 Z M249,85.7 C307.4,85.7 342.7,121 342.7,179.4 L342.7,237.8 C277.2,233.2 221.3,233.2 155.4,237.8 L155.4,179.4 C155.4,120.9 190.7,85.7 249,85.7 Z M248.6,323.8 C330.1,323.8 398.5,330.1 398.5,341.4 L398.5,560.2 C398.5,563.6 398.1,564 395.1,565.2 C392.2,566.5 256.1,615.6 256.1,615.6 C256.1,615.6 250.6,617.3 249,617.3 C247.3,617.3 241.9,615.2 241.9,615.2 C241.9,615.2 105.8,566.1 102.9,564.8 C100,563.5 99.5,563.1 99.5,559.8 L99.5,341 C98.7,329.7 167.1,323.8 248.6,323.8 Z" id="path7" fill-rule="nonzero"></path>
    </g>
</svg>